General                          : ChattChitto RG - Movies Release
==========  
Complete name                    : Halloween II 2009 Unrated Director's Cut BDRip H264 AAC.mp4
Format                           : MPEG-4
Format profile                   : Base Media
Codec ID                         : isom
File size                        : 2.20 GiB
Duration                         : 1h 59mn
Overall bit rate                 : 2 649 Kbps
Encoded date                     : UTC 2010-01-18 21:30:55

Video
==========
ID                               : 1
Format                           : AVC
Format/Info                      : Advanced Video Codec
Format profile                   : High@L3.1
Format settings, CABAC           : Yes
Format settings, ReFrames        : 3 frames
Codec ID                         : avc1
Codec ID/Info                    : Advanced Video Coding
Duration                         : 1h 59mn
Bit rate mode                    : Variable
Bit rate                         : 2 300 Kbps
Maximum bit rate                 : 19.4 Mbps
Width                            : 1 280 pixels
Height                           : 688 pixels
Display aspect ratio             : 1.860
Frame rate mode                  : Constant
Frame rate                       : 23.976 fps
Resolution                       : 8 bits
Colorimetry                      : 4:2:0
Scan type                        : Progressive
Bits/(Pixel*Frame)               : 0.109
Stream size                      : 1.91 GiB (87%)
Writing library                  : x264 
Encoded date                     : UTC 2010-01-18 21:03:42

Audio
==========
ID                               : 2
Format                           : AAC
Format/Info                      : Advanced Audio Codec
Format version                   : Version 4
Format profile                   : LC
Format settings, SBR             : No
Codec ID                         : 40
Duration                         : 1h 59mn
Bit rate mode                    : Variable
Bit rate                         : 346 Kbps
Maximum bit rate                 : 470 Kbps
Channel(s)                       : 6 channels
Channel positions                : Front: L C R, Rear: L R, LFE
Sampling rate                    : 48.0 KHz
Stream size                      : 294 MiB (13%)
Encoded date                     : UTC 2010-01-18 21:31:56

Subtitles                        : English [.srt files]



IMDB Link: http://www.imdb.com/title/tt1311067/


Plot:
======
Michael Myers is still at large and no less dangerous than ever. After a failed reunion to reach his baby sister at their old home, Laurie Strode is immediately taken to a hospital to be treated by the wounds that had been afflicted by her brother a few hours ago. However, Michael isn't too far off and will continue his murdering 'Halloween' rampage until he gets his sister all to himself.


Source
==========
Halloween II Unrated Director's Cut Blue-Ray 1080p MPEG-4 AVC/DTS-HD Master Audio 5.1 [27.8Gb]

Notes
==========
ChattChitto RG Encourages Burning this Film with ConvertXtoDVD.
Enhanced for your viewing pleasure ;)